<svg xmlns="http://www.w3.org/2000/svg" viewBox="0 0 1600 980" role="img" aria-label="Voulamandis House garden welcome image">
  <defs>
    <linearGradient id="sky" x1="0" y1="0" x2="1" y2="1">
      <stop offset="0" stop-color="#fff7db"/>
      <stop offset="0.45" stop-color="#f2d58c"/>
      <stop offset="1" stop-color="#315b4f"/>
    </linearGradient>
    <linearGradient id="shade" x1="0" y1="0" x2="0" y2="1">
      <stop offset="0" stop-color="#000" stop-opacity="0.08"/>
      <stop offset="1" stop-color="#000" stop-opacity="0.55"/>
    </linearGradient>
    <filter id="soft" x="-20%" y="-20%" width="140%" height="140%">
      <feGaussianBlur stdDeviation="12"/>
    </filter>
  </defs>
  <rect width="1600" height="980" fill="url(#sky)"/>
  <circle cx="1260" cy="180" r="110" fill="#fff4bf" opacity="0.85"/>
  <path d="M0 690 C210 590 360 650 560 560 C760 470 980 520 1180 430 C1360 350 1490 380 1600 320 L1600 980 L0 980 Z" fill="#456f4d" opacity="0.72"/>
  <path d="M0 745 C260 650 420 710 645 630 C850 555 1030 600 1265 500 C1420 435 1510 470 1600 430 L1600 980 L0 980 Z" fill="#263f35" opacity="0.86"/>
  <g opacity="0.9">
    <rect x="450" y="410" width="700" height="310" rx="26" fill="#fff1cc"/>
    <rect x="500" y="480" width="125" height="170" rx="14" fill="#315b4f" opacity="0.88"/>
    <rect x="700" y="480" width="125" height="170" rx="14" fill="#315b4f" opacity="0.88"/>
    <rect x="900" y="480" width="125" height="170" rx="14" fill="#315b4f" opacity="0.88"/>
    <path d="M420 420 L800 230 L1180 420 Z" fill="#a86034"/>
    <path d="M490 412 L800 265 L1110 412 Z" fill="#c9783f" opacity="0.78"/>
  </g>
  <g filter="url(#soft)" opacity="0.45">
    <circle cx="235" cy="585" r="170" fill="#173d31"/>
    <circle cx="1330" cy="610" r="205" fill="#173d31"/>
  </g>
  <g opacity="0.95">
    <circle cx="215" cy="525" r="110" fill="#2f6b41"/>
    <circle cx="155" cy="610" r="90" fill="#3f7f48"/>
    <circle cx="300" cy="620" r="100" fill="#315b4f"/>
    <circle cx="1320" cy="535" r="125" fill="#2f6b41"/>
    <circle cx="1425" cy="630" r="105" fill="#3f7f48"/>
    <circle cx="1225" cy="645" r="100" fill="#315b4f"/>
  </g>
  <rect width="1600" height="980" fill="url(#shade)"/>
  <text x="90" y="790" fill="#fff" font-family="Arial, sans-serif" font-size="78" font-weight="800">Welcome to Voulamandis House</text>
  <text x="94" y="858" fill="#fff7db" font-family="Arial, sans-serif" font-size="34" font-weight="600">Kampos, Chios · Guest stay guide</text>
</svg>
